<svg width="659" height="667" viewBox="0 0 659 667" fill="none" xmlns="http://www.w3.org/2000/svg">
<path fill-rule="evenodd" clip-rule="evenodd" d="M36.1201 278.006H50.1201V292.006H36.1201V278.006Z" fill="#F77A56" fill-opacity="0.318681"/>
<path fill-rule="evenodd" clip-rule="evenodd" d="M337.12 558.006H347.12V568.006H337.12V558.006Z" fill="#F77A56"/>
<path fill-rule="evenodd" clip-rule="evenodd" d="M320.12 22.0059H326.12V28.0059H320.12V22.0059Z" fill="#FF5B32"/>
<path fill-rule="evenodd" clip-rule="evenodd" d="M577.12 312.006H584.12V319.006H577.12V312.006Z" fill="#F2DAD5"/>
<path fill-rule="evenodd" clip-rule="evenodd" d="M101.865 184.701C101.292 185.611 100.745 187.014 100.386 186.959C94.263 186.033 88.3731 184.268 84.114 179.035C83.1366 177.829 82.5896 175.391 83.0049 173.905C83.3797 172.59 85.4814 170.831 86.6361 170.968C94.42 171.944 98.8462 177.517 101.865 184.701Z" fill="#363636"/>
<path fill-rule="evenodd" clip-rule="evenodd" d="M92.7744 108.236C91.9104 109.155 91.1491 110.17 90.117 110.913C89.8321 111.117 88.6225 110.625 88.0481 110.222C85.5962 108.547 83.2237 106.677 84.0223 103.668C84.2885 102.649 85.5728 101.734 86.619 101.011C86.9132 100.803 88.1181 101.279 88.7066 101.67C91.2005 103.321 93.3348 105.179 92.7744 108.236Z" fill="#363636"/>
<path fill-rule="evenodd" clip-rule="evenodd" d="M164.517 97.6364C163.205 98.7488 162.086 100.387 160.602 100.763C159.044 101.174 156.163 100.953 155.562 100.011C152.614 95.3264 151.704 90.2356 154.762 85.1497C155.118 84.5534 156.163 83.887 156.796 83.9672C158.505 84.1776 160.832 84.2578 161.72 85.305C164.747 88.8476 165.364 93.1668 164.517 97.6364Z" fill="#363636"/>
<path fill-rule="evenodd" clip-rule="evenodd" d="M536.344 468.112C599.514 343.519 522.039 2.08052 237.017 113.416C-48.0049 224.752 80.1263 412.231 176.876 489.209C273.626 566.188 473.174 592.705 536.344 468.112Z" fill="#E4F1FC"/>
<mask id="mask0_1_4" style="mask-type:luminance" maskUnits="userSpaceOnUse" x="92" y="465" width="124" height="87">
<path d="M215.116 467.56L153.005 551.254C152.981 551.285 152.956 551.315 152.93 551.343C152.903 551.372 152.875 551.399 152.845 551.424C152.815 551.449 152.783 551.472 152.751 551.493C152.719 551.515 152.685 551.534 152.65 551.551C152.615 551.569 152.58 551.584 152.543 551.597C152.506 551.61 152.469 551.622 152.431 551.631C152.393 551.64 152.355 551.647 152.316 551.65C152.277 551.655 152.239 551.657 152.2 551.657C152.16 551.657 152.121 551.655 152.083 551.65C152.044 551.646 152.006 551.639 151.968 551.629C151.93 551.62 151.893 551.609 151.856 551.595C151.819 551.582 151.784 551.566 151.749 551.549C151.714 551.531 151.681 551.511 151.649 551.49C151.616 551.468 151.585 551.445 151.555 551.42C151.526 551.394 151.498 551.367 151.471 551.338C151.444 551.31 151.42 551.28 151.397 551.249L92.452 470.798C92.4387 470.779 92.4259 470.761 92.4138 470.741C92.4017 470.722 92.3902 470.703 92.3794 470.683C92.3687 470.663 92.3586 470.643 92.3492 470.622C92.3397 470.601 92.331 470.581 92.3231 470.559C92.3151 470.538 92.3078 470.517 92.3013 470.495C92.2947 470.473 92.2889 470.451 92.2839 470.429C92.2789 470.407 92.2746 470.385 92.2711 470.363C92.2675 470.34 92.2648 470.318 92.2628 470.295C92.2608 470.273 92.2595 470.25 92.2591 470.227C92.2586 470.205 92.259 470.182 92.2601 470.159C92.2611 470.137 92.263 470.114 92.2656 470.092C92.2682 470.069 92.2716 470.047 92.2757 470.025C92.2798 470.002 92.2847 469.98 92.2904 469.958C92.2961 469.936 92.3024 469.915 92.3095 469.893C92.3167 469.872 92.3245 469.85 92.3331 469.829C92.3417 469.808 92.3509 469.788 92.3609 469.767C92.3709 469.747 92.3815 469.727 92.3929 469.707C92.4042 469.688 92.4162 469.669 92.4288 469.65C92.4414 469.631 92.4547 469.613 92.4687 469.595C92.4825 469.577 92.497 469.559 92.5121 469.543C92.5271 469.526 92.5427 469.509 92.5589 469.493C92.5751 469.478 92.5919 469.462 92.6091 469.448C92.6263 469.433 92.644 469.419 92.6622 469.405C92.6804 469.392 92.699 469.379 92.7181 469.367C92.7371 469.354 92.7566 469.343 92.7765 469.332C92.7963 469.321 92.8165 469.311 92.8371 469.301C92.8576 469.292 92.8784 469.283 92.8996 469.275C92.9207 469.266 92.9422 469.259 92.9638 469.252C92.9855 469.246 93.0073 469.24 93.0294 469.235C93.0514 469.229 93.0736 469.225 93.096 469.221C93.1183 469.218 93.1408 469.215 93.1634 469.213C93.1859 469.21 93.2085 469.209 93.2311 469.209L214.287 465.966C214.31 465.966 214.333 465.966 214.356 465.967C214.38 465.968 214.403 465.97 214.426 465.972C214.449 465.975 214.472 465.978 214.495 465.983C214.518 465.987 214.541 465.992 214.563 465.998C214.586 466.004 214.608 466.01 214.63 466.018C214.652 466.025 214.674 466.033 214.696 466.042C214.717 466.051 214.738 466.061 214.759 466.071C214.78 466.081 214.8 466.092 214.82 466.104C214.84 466.116 214.86 466.129 214.879 466.142C214.898 466.155 214.917 466.169 214.935 466.183C214.954 466.198 214.971 466.213 214.988 466.229C215.006 466.244 215.022 466.261 215.038 466.278C215.054 466.294 215.07 466.312 215.084 466.33C215.099 466.348 215.113 466.366 215.127 466.385C215.14 466.404 215.153 466.424 215.165 466.443C215.178 466.463 215.189 466.484 215.2 466.504C215.21 466.525 215.221 466.546 215.23 466.567C215.239 466.589 215.248 466.61 215.255 466.632C215.263 466.654 215.27 466.676 215.276 466.699C215.282 466.721 215.288 466.744 215.292 466.767C215.297 466.789 215.301 466.812 215.304 466.835C215.307 466.858 215.309 466.882 215.311 466.905C215.312 466.928 215.313 466.951 215.312 466.975C215.312 466.998 215.311 467.021 215.309 467.044C215.307 467.068 215.305 467.091 215.301 467.114C215.298 467.137 215.294 467.16 215.289 467.182C215.283 467.205 215.278 467.228 215.271 467.25C215.264 467.272 215.257 467.294 215.249 467.316C215.241 467.338 215.232 467.359 215.222 467.381C215.212 467.402 215.202 467.422 215.191 467.443C215.18 467.463 215.168 467.483 215.155 467.503C215.143 467.523 215.13 467.542 215.116 467.56Z" fill="white"/>
</mask>
<g mask="url(#mask0_1_4)">
<path fill-rule="evenodd" clip-rule="evenodd" d="M272.587 498.216L270.671 499.558L192.133 387.394L194.049 386.052L272.587 498.216Z" fill="#0FD8F7"/>
<path fill-rule="evenodd" clip-rule="evenodd" d="M262.428 504.991L260.512 506.333L181.974 394.169L183.89 392.827L262.428 504.991Z" fill="#0FD8F7"/>
<path fill-rule="evenodd" clip-rule="evenodd" d="M254.506 511.082L252.59 512.424L174.052 400.26L175.968 398.918L254.506 511.082Z" fill="#0FD8F7"/>
<path fill-rule="evenodd" clip-rule="evenodd" d="M244.347 517.857L242.431 519.199L163.893 407.035L165.809 405.693L244.347 517.857Z" fill="#0FD8F7"/>
<path fill-rule="evenodd" clip-rule="evenodd" d="M234.188 524.632L232.272 525.974L153.734 413.81L155.65 412.468L234.188 524.632Z" fill="#0FD8F7"/>
<path fill-rule="evenodd" clip-rule="evenodd" d="M226.266 530.723L224.35 532.065L145.812 419.901L147.728 418.559L226.266 530.723Z" fill="#0FD8F7"/>
<path fill-rule="evenodd" clip-rule="evenodd" d="M216.107 537.498L214.191 538.84L135.653 426.676L137.569 425.334L216.107 537.498Z" fill="#0FD8F7"/>
<path fill-rule="evenodd" clip-rule="evenodd" d="M207.461 545.392L205.544 546.734L127.006 434.57L128.922 433.228L207.461 545.392Z" fill="#0FD8F7"/>
<path fill-rule="evenodd" clip-rule="evenodd" d="M196.857 550.364L194.941 551.706L116.402 439.542L118.319 438.2L196.857 550.364Z" fill="#0FD8F7"/>
<path fill-rule="evenodd" clip-rule="evenodd" d="M187.867 557.139L185.951 558.481L107.413 446.317L109.329 444.975L187.867 557.139Z" fill="#0FD8F7"/>
<path fill-rule="evenodd" clip-rule="evenodd" d="M179.221 565.034L177.304 566.375L98.7663 454.211L100.682 452.869L179.221 565.034Z" fill="#0FD8F7"/>
<path fill-rule="evenodd" clip-rule="evenodd" d="M169.787 570.005L167.87 571.347L89.3323 459.183L91.2484 457.841L169.787 570.005Z" fill="#0FD8F7"/>
<path fill-rule="evenodd" clip-rule="evenodd" d="M159.97 577.899L158.054 579.241L79.5156 467.077L81.4317 465.735L159.97 577.899Z" fill="#0FD8F7"/>
<path fill-rule="evenodd" clip-rule="evenodd" d="M150.587 583.213L148.671 584.555L70.1328 472.391L72.0489 471.049L150.587 583.213Z" fill="#0FD8F7"/>
</g>
<g filter="url(#filter0_d_1_4)">
<path fill-rule="evenodd" clip-rule="evenodd" d="M153.119 150.006H490.121C490.252 150.006 490.382 150.009 490.513 150.015C490.644 150.022 490.775 150.032 490.905 150.044C491.035 150.057 491.165 150.073 491.295 150.092C491.424 150.112 491.553 150.134 491.681 150.16C491.81 150.185 491.938 150.214 492.065 150.246C492.192 150.277 492.318 150.312 492.443 150.35C492.568 150.388 492.693 150.429 492.816 150.473C492.939 150.518 493.061 150.565 493.182 150.615C493.303 150.665 493.422 150.718 493.541 150.774C493.659 150.83 493.776 150.889 493.892 150.95C494.007 151.012 494.121 151.077 494.233 151.144C494.346 151.211 494.456 151.281 494.565 151.354C494.674 151.427 494.781 151.502 494.886 151.58C494.991 151.658 495.095 151.739 495.196 151.822C495.297 151.905 495.396 151.99 495.493 152.078C495.59 152.166 495.684 152.256 495.777 152.349C495.87 152.441 495.96 152.536 496.048 152.633C496.136 152.73 496.221 152.829 496.304 152.93C496.387 153.032 496.468 153.135 496.546 153.24C496.624 153.345 496.699 153.452 496.772 153.561C496.845 153.67 496.915 153.78 496.982 153.893C497.049 154.005 497.114 154.119 497.175 154.234C497.237 154.35 497.296 154.467 497.352 154.585C497.408 154.703 497.461 154.823 497.511 154.944C497.561 155.065 497.608 155.187 497.652 155.31C497.697 155.433 497.738 155.558 497.776 155.683C497.814 155.808 497.849 155.934 497.88 156.061C497.912 156.188 497.941 156.316 497.966 156.444C497.992 156.573 498.014 156.702 498.033 156.831C498.052 156.961 498.068 157.091 498.081 157.221C498.094 157.351 498.104 157.482 498.11 157.612C498.117 157.743 498.12 157.874 498.12 158.005V488.007C498.12 488.138 498.117 488.268 498.11 488.399C498.104 488.53 498.094 488.661 498.081 488.791C498.068 488.921 498.052 489.051 498.033 489.181C498.014 489.31 497.992 489.439 497.966 489.567C497.941 489.696 497.912 489.824 497.88 489.951C497.849 490.078 497.814 490.204 497.776 490.329C497.738 490.454 497.697 490.579 497.652 490.702C497.608 490.825 497.561 490.947 497.511 491.068C497.461 491.189 497.408 491.308 497.352 491.427C497.296 491.545 497.237 491.662 497.175 491.778C497.114 491.893 497.049 492.007 496.982 492.119C496.915 492.232 496.845 492.342 496.772 492.451C496.699 492.56 496.624 492.667 496.546 492.772C496.468 492.877 496.387 492.98 496.304 493.081C496.221 493.182 496.136 493.282 496.048 493.379C495.96 493.476 495.87 493.57 495.777 493.663C495.684 493.756 495.59 493.846 495.493 493.934C495.396 494.022 495.297 494.107 495.196 494.19C495.095 494.273 494.991 494.354 494.886 494.432C494.781 494.51 494.674 494.585 494.565 494.658C494.456 494.731 494.346 494.801 494.233 494.868C494.121 494.935 494.007 495 493.892 495.061C493.776 495.123 493.659 495.182 493.541 495.238C493.422 495.294 493.303 495.347 493.182 495.397C493.061 495.447 492.939 495.494 492.816 495.538C492.693 495.583 492.568 495.624 492.443 495.662C492.318 495.7 492.192 495.735 492.065 495.766C491.938 495.798 491.81 495.827 491.681 495.852C491.553 495.878 491.424 495.9 491.295 495.919C491.165 495.938 491.035 495.954 490.905 495.967C490.775 495.98 490.644 495.99 490.513 495.996C490.382 496.003 490.252 496.006 490.121 496.006H153.119C152.988 496.006 152.857 496.003 152.727 495.996C152.596 495.99 152.465 495.98 152.335 495.967C152.205 495.954 152.075 495.938 151.945 495.919C151.816 495.9 151.687 495.878 151.559 495.852C151.43 495.827 151.303 495.798 151.176 495.766C151.049 495.735 150.922 495.7 150.797 495.662C150.672 495.624 150.548 495.583 150.424 495.538C150.301 495.494 150.179 495.447 150.058 495.397C149.937 495.347 149.817 495.294 149.699 495.238C149.581 495.182 149.464 495.123 149.348 495.061C149.233 495 149.119 494.935 149.007 494.868C148.895 494.801 148.784 494.731 148.675 494.658C148.566 494.585 148.459 494.51 148.354 494.432C148.249 494.354 148.146 494.273 148.045 494.19C147.943 494.107 147.844 494.022 147.747 493.934C147.65 493.846 147.556 493.756 147.463 493.663C147.37 493.57 147.28 493.476 147.192 493.379C147.104 493.282 147.019 493.182 146.936 493.081C146.853 492.98 146.772 492.877 146.694 492.772C146.616 492.667 146.541 492.56 146.468 492.451C146.395 492.342 146.325 492.232 146.258 492.119C146.191 492.007 146.126 491.893 146.065 491.778C146.003 491.662 145.944 491.545 145.888 491.427C145.832 491.308 145.779 491.189 145.729 491.068C145.679 490.947 145.632 490.825 145.588 490.702C145.544 490.579 145.503 490.454 145.465 490.329C145.427 490.204 145.392 490.078 145.36 489.951C145.328 489.824 145.299 489.696 145.274 489.567C145.248 489.439 145.226 489.31 145.207 489.181C145.187 489.051 145.171 488.921 145.159 488.791C145.146 488.661 145.136 488.53 145.13 488.399C145.123 488.268 145.12 488.138 145.12 488.007V158.005C145.12 157.874 145.123 157.743 145.13 157.612C145.136 157.482 145.146 157.351 145.159 157.221C145.171 157.091 145.187 156.961 145.207 156.831C145.226 156.702 145.248 156.573 145.274 156.444C145.299 156.316 145.328 156.188 145.36 156.061C145.392 155.934 145.427 155.808 145.465 155.683C145.503 155.558 145.544 155.433 145.588 155.31C145.632 155.187 145.679 155.065 145.729 154.944C145.779 154.823 145.832 154.703 145.888 154.585C145.944 154.467 146.003 154.35 146.065 154.234C146.126 154.119 146.191 154.005 146.258 153.893C146.325 153.78 146.395 153.67 146.468 153.561C146.541 153.452 146.616 153.345 146.694 153.24C146.772 153.135 146.853 153.032 146.936 152.93C147.019 152.829 147.104 152.73 147.192 152.633C147.28 152.536 147.37 152.441 147.463 152.349C147.556 152.256 147.65 152.166 147.747 152.078C147.844 151.99 147.943 151.905 148.045 151.822C148.146 151.739 148.249 151.658 148.354 151.58C148.459 151.502 148.566 151.427 148.675 151.354C148.784 151.281 148.895 151.211 149.007 151.144C149.119 151.077 149.233 151.012 149.348 150.95C149.464 150.889 149.581 150.83 149.699 150.774C149.817 150.718 149.937 150.665 150.058 150.615C150.179 150.565 150.301 150.518 150.424 150.473C150.548 150.429 150.672 150.388 150.797 150.35C150.922 150.312 151.049 150.277 151.176 150.246C151.303 150.214 151.43 150.185 151.559 150.16C151.687 150.134 151.816 150.112 151.945 150.092C152.075 150.073 152.205 150.057 152.335 150.044C152.465 150.032 152.596 150.022 152.727 150.015C152.857 150.009 152.988 150.006 153.119 150.006Z" fill="white"/>
</g>
<path fill-rule="evenodd" clip-rule="evenodd" d="M489.12 203.006C520.048 203.006 545.12 177.934 545.12 147.006C545.12 116.078 520.048 91.0059 489.12 91.0059C458.192 91.0059 433.12 116.078 433.12 147.006C433.12 177.934 458.192 203.006 489.12 203.006Z" fill="#FD3D76"/>
<path d="M473.454 170.006H501.479C501.948 170.006 502.399 169.823 502.726 169.492L512.598 159.779C512.934 159.448 513.12 159.013 513.12 158.552V132.719C513.12 129.281 510.281 126.487 506.786 126.487H504.274V124.747C504.274 123.789 503.478 123.006 502.505 123.006C501.532 123.006 500.736 123.789 500.736 124.747V126.487H479.505V124.747C479.505 123.789 478.709 123.006 477.736 123.006C476.762 123.006 475.966 123.789 475.966 124.747V126.487H473.454C469.96 126.487 467.12 129.281 467.12 132.719V163.774C467.12 167.212 469.96 170.006 473.454 170.006ZM501.62 165.663V160.066C501.62 159.788 501.85 159.561 502.133 159.561H507.821L501.62 165.663ZM470.659 132.719C470.659 131.205 471.915 129.969 473.454 129.969H475.966V131.71C475.966 132.667 476.762 133.45 477.736 133.45C478.709 133.45 479.505 132.667 479.505 131.71V129.969H500.736V131.71C500.736 132.667 501.532 133.45 502.505 133.45C503.478 133.45 504.274 132.667 504.274 131.71V129.969H506.786C508.325 129.969 509.582 131.205 509.582 132.719V156.08H502.133C499.895 156.08 498.081 157.864 498.081 160.066V166.524H473.454C471.915 166.524 470.659 165.289 470.659 163.774V132.719Z" fill="white"/>
<path d="M479.606 142.589C480.695 142.589 481.577 141.712 481.577 140.631C481.577 139.549 480.695 138.673 479.606 138.673C478.517 138.673 477.634 139.549 477.634 140.631C477.634 141.712 478.517 142.589 479.606 142.589Z" fill="white"/>
<path d="M488.806 142.589C489.895 142.589 490.777 141.712 490.777 140.631C490.777 139.549 489.895 138.673 488.806 138.673C487.717 138.673 486.834 139.549 486.834 140.631C486.834 141.712 487.717 142.589 488.806 142.589Z" fill="white"/>
<path d="M499.32 142.589C500.409 142.589 501.292 141.712 501.292 140.631C501.292 139.549 500.409 138.673 499.32 138.673C498.231 138.673 497.349 139.549 497.349 140.631C497.349 141.712 498.231 142.589 499.32 142.589Z" fill="white"/>
<path d="M479.606 151.728C480.695 151.728 481.577 150.851 481.577 149.77C481.577 148.688 480.695 147.811 479.606 147.811C478.517 147.811 477.634 148.688 477.634 149.77C477.634 150.851 478.517 151.728 479.606 151.728Z" fill="white"/>
<path d="M488.806 151.728C489.895 151.728 490.777 150.851 490.777 149.77C490.777 148.688 489.895 147.811 488.806 147.811C487.717 147.811 486.834 148.688 486.834 149.77C486.834 150.851 487.717 151.728 488.806 151.728Z" fill="white"/>
<path d="M499.32 151.728C500.409 151.728 501.292 150.851 501.292 149.77C501.292 148.688 500.409 147.811 499.32 147.811C498.231 147.811 497.349 148.688 497.349 149.77C497.349 150.851 498.231 151.728 499.32 151.728Z" fill="white"/>
<path d="M479.606 159.561C480.695 159.561 481.577 158.685 481.577 157.603C481.577 156.522 480.695 155.645 479.606 155.645C478.517 155.645 477.634 156.522 477.634 157.603C477.634 158.685 478.517 159.561 479.606 159.561Z" fill="white"/>
<path d="M488.806 159.561C489.895 159.561 490.777 158.685 490.777 157.603C490.777 156.522 489.895 155.645 488.806 155.645C487.717 155.645 486.834 156.522 486.834 157.603C486.834 158.685 487.717 159.561 488.806 159.561Z" fill="white"/>
<path fill-rule="evenodd" clip-rule="evenodd" d="M192.119 226.006H448.121C448.35 226.006 448.579 226.011 448.808 226.023C449.037 226.034 449.265 226.051 449.493 226.073C449.721 226.096 449.948 226.124 450.175 226.157C450.402 226.191 450.627 226.23 450.852 226.275C451.077 226.32 451.3 226.37 451.522 226.425C451.745 226.481 451.966 226.542 452.185 226.609C452.404 226.675 452.622 226.747 452.837 226.824C453.053 226.901 453.267 226.984 453.478 227.071C453.69 227.159 453.899 227.252 454.106 227.35C454.313 227.448 454.518 227.551 454.72 227.659C454.922 227.767 455.121 227.88 455.318 227.998C455.515 228.115 455.708 228.238 455.898 228.365C456.089 228.492 456.276 228.624 456.46 228.761C456.644 228.897 456.825 229.038 457.002 229.183C457.179 229.329 457.352 229.478 457.522 229.632C457.692 229.786 457.858 229.944 458.02 230.106C458.182 230.268 458.34 230.434 458.494 230.604C458.647 230.773 458.797 230.947 458.942 231.124C459.087 231.301 459.228 231.482 459.365 231.666C459.502 231.85 459.634 232.037 459.761 232.227C459.888 232.418 460.011 232.611 460.128 232.808C460.246 233.004 460.359 233.204 460.467 233.406C460.575 233.608 460.678 233.812 460.776 234.02C460.874 234.227 460.967 234.436 461.054 234.648C461.142 234.859 461.225 235.073 461.302 235.289C461.379 235.504 461.45 235.722 461.517 235.941C461.584 236.16 461.645 236.381 461.7 236.603C461.756 236.826 461.806 237.049 461.851 237.274C461.896 237.498 461.935 237.724 461.968 237.951C462.002 238.177 462.03 238.405 462.053 238.633C462.075 238.861 462.092 239.089 462.103 239.318C462.114 239.547 462.12 239.776 462.12 240.005V249.007C462.12 249.236 462.114 249.465 462.103 249.694C462.092 249.923 462.075 250.151 462.053 250.379C462.03 250.607 462.002 250.834 461.968 251.061C461.935 251.288 461.896 251.513 461.851 251.738C461.806 251.963 461.756 252.186 461.7 252.408C461.645 252.631 461.584 252.851 461.517 253.071C461.45 253.29 461.379 253.507 461.302 253.723C461.225 253.939 461.142 254.152 461.054 254.364C460.967 254.576 460.874 254.785 460.776 254.992C460.678 255.199 460.575 255.404 460.467 255.606C460.359 255.808 460.246 256.007 460.128 256.204C460.011 256.4 459.888 256.594 459.761 256.784C459.634 256.975 459.502 257.162 459.365 257.346C459.228 257.53 459.087 257.711 458.942 257.888C458.797 258.065 458.647 258.238 458.494 258.408C458.34 258.578 458.182 258.744 458.02 258.906C457.858 259.068 457.692 259.226 457.522 259.379C457.352 259.533 457.179 259.683 457.002 259.828C456.825 259.974 456.644 260.114 456.46 260.251C456.276 260.387 456.089 260.519 455.898 260.647C455.708 260.774 455.515 260.896 455.318 261.014C455.121 261.132 454.922 261.245 454.72 261.353C454.518 261.461 454.313 261.564 454.106 261.662C453.899 261.76 453.69 261.853 453.478 261.94C453.267 262.028 453.053 262.11 452.837 262.188C452.622 262.265 452.404 262.337 452.185 262.403C451.966 262.47 451.745 262.531 451.522 262.586C451.3 262.642 451.077 262.692 450.852 262.737C450.627 262.782 450.402 262.821 450.175 262.854C449.948 262.888 449.721 262.916 449.493 262.938C449.265 262.961 449.037 262.978 448.808 262.989C448.579 263 448.35 263.006 448.121 263.006H192.119C191.89 263.006 191.661 263 191.432 262.989C191.203 262.978 190.975 262.961 190.747 262.938C190.519 262.916 190.292 262.888 190.065 262.854C189.838 262.821 189.613 262.782 189.388 262.737C189.163 262.692 188.94 262.642 188.718 262.586C188.495 262.531 188.275 262.47 188.055 262.403C187.836 262.337 187.619 262.265 187.403 262.188C187.187 262.11 186.974 262.028 186.762 261.94C186.55 261.853 186.341 261.76 186.134 261.662C185.927 261.564 185.722 261.461 185.52 261.353C185.318 261.245 185.119 261.132 184.922 261.014C184.726 260.896 184.532 260.774 184.342 260.647C184.151 260.519 183.964 260.387 183.78 260.251C183.596 260.114 183.415 259.974 183.238 259.828C183.061 259.683 182.888 259.533 182.718 259.379C182.548 259.226 182.382 259.068 182.22 258.906C182.058 258.744 181.9 258.578 181.747 258.408C181.593 258.238 181.443 258.065 181.298 257.888C181.152 257.711 181.011 257.53 180.875 257.346C180.739 257.162 180.607 256.975 180.479 256.784C180.352 256.594 180.23 256.4 180.112 256.204C179.994 256.007 179.881 255.808 179.773 255.606C179.665 255.404 179.562 255.199 179.464 254.992C179.366 254.785 179.273 254.576 179.186 254.364C179.098 254.152 179.016 253.939 178.938 253.723C178.861 253.507 178.789 253.29 178.723 253.071C178.656 252.851 178.595 252.631 178.54 252.408C178.484 252.186 178.434 251.963 178.389 251.738C178.344 251.513 178.305 251.288 178.272 251.061C178.238 250.834 178.21 250.607 178.188 250.379C178.165 250.151 178.148 249.923 178.137 249.694C178.126 249.465 178.12 249.236 178.12 249.007V240.005C178.12 239.776 178.126 239.547 178.137 239.318C178.148 239.089 178.165 238.861 178.188 238.633C178.21 238.405 178.238 238.177 178.272 237.951C178.305 237.724 178.344 237.498 178.389 237.274C178.434 237.049 178.484 236.826 178.54 236.603C178.595 236.381 178.656 236.16 178.723 235.941C178.789 235.722 178.861 235.504 178.938 235.289C179.016 235.073 179.098 234.859 179.186 234.648C179.273 234.436 179.366 234.227 179.464 234.02C179.562 233.812 179.665 233.608 179.773 233.406C179.881 233.204 179.994 233.004 180.112 232.808C180.23 232.611 180.352 232.418 180.479 232.227C180.607 232.037 180.739 231.85 180.875 231.666C181.011 231.482 181.152 231.301 181.298 231.124C181.443 230.947 181.593 230.773 181.747 230.604C181.9 230.434 182.058 230.268 182.22 230.106C182.382 229.944 182.548 229.786 182.718 229.632C182.888 229.478 183.061 229.329 183.238 229.183C183.415 229.038 183.596 228.897 183.78 228.761C183.964 228.624 184.151 228.492 184.342 228.365C184.532 228.238 184.726 228.115 184.922 227.998C185.119 227.88 185.318 227.767 185.52 227.659C185.722 227.551 185.927 227.448 186.134 227.35C186.341 227.252 186.55 227.159 186.762 227.071C186.974 226.984 187.187 226.901 187.403 226.824C187.619 226.747 187.836 226.675 188.055 226.609C188.275 226.542 188.495 226.481 188.718 226.425C188.94 226.37 189.163 226.32 189.388 226.275C189.613 226.23 189.838 226.191 190.065 226.157C190.292 226.124 190.519 226.096 190.747 226.073C190.975 226.051 191.203 226.034 191.432 226.023C191.661 226.011 191.89 226.006 192.119 226.006Z" fill="#D8D8D8" fill-opacity="0.189061"/>
<path fill-rule="evenodd" clip-rule="evenodd" d="M192.119 351.006H448.121C448.35 351.006 448.579 351.011 448.808 351.023C449.037 351.034 449.265 351.051 449.493 351.073C449.721 351.096 449.948 351.124 450.175 351.157C450.402 351.191 450.627 351.23 450.852 351.275C451.077 351.32 451.3 351.37 451.522 351.425C451.745 351.481 451.966 351.542 452.185 351.609C452.404 351.675 452.622 351.747 452.837 351.824C453.053 351.901 453.267 351.984 453.478 352.071C453.69 352.159 453.899 352.252 454.106 352.35C454.313 352.448 454.518 352.551 454.72 352.659C454.922 352.767 455.121 352.88 455.318 352.998C455.515 353.115 455.708 353.238 455.898 353.365C456.089 353.492 456.276 353.624 456.46 353.761C456.644 353.897 456.825 354.038 457.002 354.183C457.179 354.329 457.352 354.478 457.522 354.632C457.692 354.786 457.858 354.944 458.02 355.106C458.182 355.268 458.34 355.434 458.494 355.604C458.647 355.773 458.797 355.947 458.942 356.124C459.087 356.301 459.228 356.482 459.365 356.666C459.502 356.85 459.634 357.037 459.761 357.227C459.888 357.418 460.011 357.611 460.128 357.808C460.246 358.004 460.359 358.204 460.467 358.406C460.575 358.608 460.678 358.812 460.776 359.02C460.874 359.227 460.967 359.436 461.054 359.648C461.142 359.859 461.225 360.073 461.302 360.289C461.379 360.504 461.45 360.722 461.517 360.941C461.584 361.16 461.645 361.381 461.7 361.603C461.756 361.826 461.806 362.049 461.851 362.274C461.896 362.498 461.935 362.724 461.968 362.951C462.002 363.177 462.03 363.405 462.053 363.633C462.075 363.861 462.092 364.089 462.103 364.318C462.114 364.547 462.12 364.776 462.12 365.005V374.007C462.12 374.236 462.114 374.465 462.103 374.694C462.092 374.923 462.075 375.151 462.053 375.379C462.03 375.607 462.002 375.834 461.968 376.061C461.935 376.288 461.896 376.513 461.851 376.738C461.806 376.963 461.756 377.186 461.7 377.408C461.645 377.631 461.584 377.851 461.517 378.071C461.45 378.29 461.379 378.507 461.302 378.723C461.225 378.939 461.142 379.152 461.054 379.364C460.967 379.576 460.874 379.785 460.776 379.992C460.678 380.199 460.575 380.404 460.467 380.606C460.359 380.808 460.246 381.007 460.128 381.204C460.011 381.4 459.888 381.594 459.761 381.784C459.634 381.975 459.502 382.162 459.365 382.346C459.228 382.53 459.087 382.711 458.942 382.888C458.797 383.065 458.647 383.238 458.494 383.408C458.34 383.578 458.182 383.744 458.02 383.906C457.858 384.068 457.692 384.226 457.522 384.379C457.352 384.533 457.179 384.683 457.002 384.828C456.825 384.974 456.644 385.114 456.46 385.251C456.276 385.387 456.089 385.519 455.898 385.647C455.708 385.774 455.515 385.896 455.318 386.014C455.121 386.132 454.922 386.245 454.72 386.353C454.518 386.461 454.313 386.564 454.106 386.662C453.899 386.76 453.69 386.853 453.478 386.94C453.267 387.028 453.053 387.11 452.837 387.188C452.622 387.265 452.404 387.337 452.185 387.403C451.966 387.47 451.745 387.531 451.522 387.586C451.3 387.642 451.077 387.692 450.852 387.737C450.627 387.782 450.402 387.821 450.175 387.854C449.948 387.888 449.721 387.916 449.493 387.938C449.265 387.961 449.037 387.978 448.808 387.989C448.579 388 448.35 388.006 448.121 388.006H192.119C191.89 388.006 191.661 388 191.432 387.989C191.203 387.978 190.975 387.961 190.747 387.938C190.519 387.916 190.292 387.888 190.065 387.854C189.838 387.821 189.613 387.782 189.388 387.737C189.163 387.692 188.94 387.642 188.718 387.586C188.495 387.531 188.275 387.47 188.055 387.403C187.836 387.337 187.619 387.265 187.403 387.188C187.187 387.11 186.974 387.028 186.762 386.94C186.55 386.853 186.341 386.76 186.134 386.662C185.927 386.564 185.722 386.461 185.52 386.353C185.318 386.245 185.119 386.132 184.922 386.014C184.726 385.896 184.532 385.774 184.342 385.647C184.151 385.519 183.964 385.387 183.78 385.251C183.596 385.114 183.415 384.974 183.238 384.828C183.061 384.683 182.888 384.533 182.718 384.379C182.548 384.226 182.382 384.068 182.22 383.906C182.058 383.744 181.9 383.578 181.747 383.408C181.593 383.238 181.443 383.065 181.298 382.888C181.152 382.711 181.011 382.53 180.875 382.346C180.739 382.162 180.607 381.975 180.479 381.784C180.352 381.594 180.23 381.4 180.112 381.204C179.994 381.007 179.881 380.808 179.773 380.606C179.665 380.404 179.562 380.199 179.464 379.992C179.366 379.785 179.273 379.576 179.186 379.364C179.098 379.152 179.016 378.939 178.938 378.723C178.861 378.507 178.789 378.29 178.723 378.071C178.656 377.851 178.595 377.631 178.54 377.408C178.484 377.186 178.434 376.963 178.389 376.738C178.344 376.513 178.305 376.288 178.272 376.061C178.238 375.834 178.21 375.607 178.188 375.379C178.165 375.151 178.148 374.923 178.137 374.694C178.126 374.465 178.12 374.236 178.12 374.007V365.005C178.12 364.776 178.126 364.547 178.137 364.318C178.148 364.089 178.165 363.861 178.188 363.633C178.21 363.405 178.238 363.177 178.272 362.951C178.305 362.724 178.344 362.498 178.389 362.274C178.434 362.049 178.484 361.826 178.54 361.603C178.595 361.381 178.656 361.16 178.723 360.941C178.789 360.722 178.861 360.504 178.938 360.289C179.016 360.073 179.098 359.859 179.186 359.648C179.273 359.436 179.366 359.227 179.464 359.02C179.562 358.812 179.665 358.608 179.773 358.406C179.881 358.204 179.994 358.004 180.112 357.808C180.23 357.611 180.352 357.418 180.479 357.227C180.607 357.037 180.739 356.85 180.875 356.666C181.011 356.482 181.152 356.301 181.298 356.124C181.443 355.947 181.593 355.773 181.747 355.604C181.9 355.434 182.058 355.268 182.22 355.106C182.382 354.944 182.548 354.786 182.718 354.632C182.888 354.478 183.061 354.329 183.238 354.183C183.415 354.038 183.596 353.897 183.78 353.761C183.964 353.624 184.151 353.492 184.342 353.365C184.532 353.238 184.726 353.115 184.922 352.998C185.119 352.88 185.318 352.767 185.52 352.659C185.722 352.551 185.927 352.448 186.134 352.35C186.341 352.252 186.55 352.159 186.762 352.071C186.974 351.984 187.187 351.901 187.403 351.824C187.619 351.747 187.836 351.675 188.055 351.609C188.275 351.542 188.495 351.481 188.718 351.425C188.94 351.37 189.163 351.32 189.388 351.275C189.613 351.23 189.838 351.191 190.065 351.157C190.292 351.124 190.519 351.096 190.747 351.073C190.975 351.051 191.203 351.034 191.432 351.023C191.661 351.011 191.89 351.006 192.119 351.006Z" fill="#D8D8D8" fill-opacity="0.189061"/>
<path fill-rule="evenodd" clip-rule="evenodd" d="M203.619 240.006H312.621C312.736 240.006 312.85 240.011 312.964 240.023C313.078 240.034 313.191 240.051 313.304 240.073C313.416 240.095 313.527 240.123 313.637 240.157C313.746 240.19 313.854 240.228 313.96 240.272C314.066 240.316 314.169 240.365 314.27 240.419C314.371 240.473 314.47 240.532 314.565 240.596C314.66 240.659 314.752 240.727 314.841 240.8C314.93 240.873 315.014 240.95 315.095 241.031C315.176 241.112 315.253 241.197 315.326 241.285C315.399 241.374 315.467 241.466 315.53 241.561C315.594 241.656 315.653 241.754 315.707 241.855C315.761 241.957 315.81 242.06 315.854 242.166C315.897 242.272 315.936 242.379 315.969 242.489C316.002 242.599 316.03 242.71 316.053 242.822C316.075 242.935 316.092 243.048 316.103 243.162C316.114 243.276 316.12 243.39 316.12 243.505V246.507C316.12 246.621 316.114 246.736 316.103 246.85C316.092 246.964 316.075 247.077 316.053 247.189C316.03 247.302 316.002 247.413 315.969 247.523C315.936 247.632 315.897 247.74 315.854 247.846C315.81 247.952 315.761 248.055 315.707 248.156C315.653 248.257 315.594 248.356 315.53 248.451C315.467 248.546 315.399 248.638 315.326 248.727C315.253 248.815 315.176 248.9 315.095 248.981C315.014 249.062 314.93 249.139 314.841 249.212C314.752 249.284 314.66 249.353 314.565 249.416C314.47 249.48 314.371 249.539 314.27 249.593C314.169 249.647 314.066 249.696 313.96 249.74C313.854 249.783 313.746 249.822 313.637 249.855C313.527 249.888 313.416 249.916 313.304 249.939C313.191 249.961 313.078 249.978 312.964 249.989C312.85 250 312.736 250.006 312.621 250.006H203.619C203.505 250.006 203.39 250 203.276 249.989C203.162 249.978 203.049 249.961 202.936 249.939C202.824 249.916 202.713 249.888 202.603 249.855C202.494 249.822 202.386 249.783 202.28 249.74C202.174 249.696 202.071 249.647 201.97 249.593C201.869 249.539 201.77 249.48 201.675 249.416C201.58 249.353 201.488 249.284 201.399 249.212C201.311 249.139 201.226 249.062 201.145 248.981C201.064 248.9 200.987 248.815 200.914 248.727C200.842 248.638 200.773 248.546 200.71 248.451C200.646 248.356 200.587 248.257 200.533 248.156C200.479 248.055 200.43 247.952 200.386 247.846C200.343 247.74 200.304 247.632 200.271 247.523C200.238 247.413 200.21 247.302 200.187 247.189C200.165 247.077 200.148 246.964 200.137 246.85C200.126 246.736 200.12 246.621 200.12 246.507V243.505C200.12 243.39 200.126 243.276 200.137 243.162C200.148 243.048 200.165 242.935 200.187 242.822C200.21 242.71 200.238 242.599 200.271 242.489C200.304 242.379 200.343 242.272 200.386 242.166C200.43 242.06 200.479 241.957 200.533 241.855C200.587 241.754 200.646 241.656 200.71 241.561C200.773 241.466 200.842 241.374 200.914 241.285C200.987 241.197 201.064 241.112 201.145 241.031C201.226 240.95 201.311 240.873 201.399 240.8C201.488 240.727 201.58 240.659 201.675 240.596C201.77 240.532 201.869 240.473 201.97 240.419C202.071 240.365 202.174 240.316 202.28 240.272C202.386 240.228 202.494 240.19 202.603 240.157C202.713 240.123 202.824 240.095 202.936 240.073C203.049 240.051 203.162 240.034 203.276 240.023C203.39 240.011 203.505 240.006 203.619 240.006Z" fill="#77CDBC"/>
<path fill-rule="evenodd" clip-rule="evenodd" d="M193.119 285.006H286.121C286.35 285.006 286.579 285.011 286.808 285.023C287.037 285.034 287.265 285.051 287.493 285.073C287.721 285.096 287.948 285.124 288.175 285.157C288.402 285.191 288.627 285.23 288.852 285.275C289.077 285.32 289.3 285.37 289.522 285.425C289.745 285.481 289.966 285.542 290.185 285.609C290.404 285.675 290.622 285.747 290.837 285.824C291.053 285.901 291.267 285.984 291.478 286.071C291.69 286.159 291.899 286.252 292.106 286.35C292.313 286.448 292.518 286.551 292.72 286.659C292.922 286.767 293.121 286.88 293.318 286.998C293.515 287.115 293.708 287.238 293.898 287.365C294.089 287.492 294.276 287.624 294.46 287.761C294.644 287.897 294.825 288.038 295.002 288.183C295.179 288.329 295.353 288.478 295.522 288.632C295.692 288.786 295.858 288.944 296.02 289.106C296.182 289.268 296.34 289.434 296.494 289.604C296.647 289.773 296.797 289.947 296.942 290.124C297.087 290.301 297.228 290.482 297.365 290.666C297.502 290.85 297.634 291.037 297.761 291.227C297.888 291.418 298.011 291.611 298.128 291.808C298.246 292.004 298.359 292.204 298.467 292.406C298.575 292.608 298.678 292.812 298.776 293.02C298.874 293.227 298.967 293.436 299.054 293.648C299.142 293.859 299.225 294.073 299.302 294.289C299.379 294.504 299.45 294.722 299.517 294.941C299.584 295.16 299.645 295.381 299.7 295.603C299.756 295.826 299.806 296.049 299.851 296.274C299.896 296.498 299.935 296.724 299.968 296.951C300.002 297.177 300.03 297.405 300.053 297.633C300.075 297.861 300.092 298.089 300.103 298.318C300.114 298.547 300.12 298.776 300.12 299.005V313.007C300.12 313.236 300.114 313.465 300.103 313.694C300.092 313.923 300.075 314.151 300.053 314.379C300.03 314.607 300.002 314.834 299.968 315.061C299.935 315.288 299.896 315.513 299.851 315.738C299.806 315.963 299.756 316.186 299.7 316.408C299.645 316.631 299.584 316.851 299.517 317.071C299.45 317.29 299.379 317.507 299.302 317.723C299.225 317.939 299.142 318.152 299.054 318.364C298.967 318.576 298.874 318.785 298.776 318.992C298.678 319.199 298.575 319.404 298.467 319.606C298.359 319.808 298.246 320.007 298.128 320.204C298.011 320.4 297.888 320.594 297.761 320.784C297.634 320.975 297.502 321.162 297.365 321.346C297.228 321.53 297.087 321.711 296.942 321.888C296.797 322.065 296.647 322.238 296.494 322.408C296.34 322.578 296.182 322.744 296.02 322.906C295.858 323.068 295.692 323.226 295.522 323.379C295.353 323.533 295.179 323.683 295.002 323.828C294.825 323.974 294.644 324.114 294.46 324.251C294.276 324.387 294.089 324.519 293.898 324.647C293.708 324.774 293.515 324.896 293.318 325.014C293.121 325.132 292.922 325.245 292.72 325.353C292.518 325.461 292.313 325.564 292.106 325.662C291.899 325.76 291.69 325.853 291.478 325.94C291.267 326.028 291.053 326.11 290.837 326.188C290.622 326.265 290.404 326.337 290.185 326.403C289.966 326.47 289.745 326.531 289.522 326.586C289.3 326.642 289.077 326.692 288.852 326.737C288.627 326.782 288.402 326.821 288.175 326.854C287.948 326.888 287.721 326.916 287.493 326.938C287.265 326.961 287.037 326.978 286.808 326.989C286.579 327 286.35 327.006 286.121 327.006H193.119C192.89 327.006 192.661 327 192.432 326.989C192.203 326.978 191.975 326.961 191.747 326.938C191.519 326.916 191.292 326.888 191.065 326.854C190.838 326.821 190.613 326.782 190.388 326.737C190.163 326.692 189.94 326.642 189.718 326.586C189.495 326.531 189.275 326.47 189.055 326.403C188.836 326.337 188.619 326.265 188.403 326.188C188.187 326.11 187.974 326.028 187.762 325.94C187.55 325.853 187.341 325.76 187.134 325.662C186.927 325.564 186.722 325.461 186.52 325.353C186.318 325.245 186.119 325.132 185.922 325.014C185.726 324.896 185.532 324.774 185.342 324.647C185.151 324.519 184.964 324.387 184.78 324.251C184.596 324.114 184.415 323.974 184.238 323.828C184.061 323.683 183.888 323.533 183.718 323.379C183.548 323.226 183.382 323.068 183.22 322.906C183.058 322.744 182.9 322.578 182.747 322.408C182.593 322.238 182.443 322.065 182.298 321.888C182.152 321.711 182.011 321.53 181.875 321.346C181.739 321.162 181.607 320.975 181.479 320.784C181.352 320.594 181.23 320.4 181.112 320.204C180.994 320.007 180.881 319.808 180.773 319.606C180.665 319.404 180.562 319.199 180.464 318.992C180.366 318.785 180.273 318.576 180.186 318.364C180.098 318.152 180.016 317.939 179.938 317.723C179.861 317.507 179.789 317.29 179.723 317.071C179.656 316.851 179.595 316.631 179.54 316.408C179.484 316.186 179.434 315.963 179.389 315.738C179.344 315.513 179.305 315.288 179.272 315.061C179.238 314.834 179.21 314.607 179.188 314.379C179.165 314.151 179.148 313.923 179.137 313.694C179.126 313.465 179.12 313.236 179.12 313.007V299.005C179.12 298.776 179.126 298.547 179.137 298.318C179.148 298.089 179.165 297.861 179.188 297.633C179.21 297.405 179.238 297.177 179.272 296.951C179.305 296.724 179.344 296.498 179.389 296.274C179.434 296.049 179.484 295.826 179.54 295.603C179.595 295.381 179.656 295.16 179.723 294.941C179.789 294.722 179.861 294.504 179.938 294.289C180.016 294.073 180.098 293.859 180.186 293.648C180.273 293.436 180.366 293.227 180.464 293.02C180.562 292.812 180.665 292.608 180.773 292.406C180.881 292.204 180.994 292.004 181.112 291.808C181.23 291.611 181.352 291.418 181.479 291.227C181.607 291.037 181.739 290.85 181.875 290.666C182.011 290.482 182.152 290.301 182.298 290.124C182.443 289.947 182.593 289.773 182.747 289.604C182.9 289.434 183.058 289.268 183.22 289.106C183.382 288.944 183.548 288.786 183.718 288.632C183.888 288.478 184.061 288.329 184.238 288.183C184.415 288.038 184.596 287.897 184.78 287.761C184.964 287.624 185.151 287.492 185.342 287.365C185.532 287.238 185.726 287.115 185.922 286.998C186.119 286.88 186.318 286.767 186.52 286.659C186.722 286.551 186.927 286.448 187.134 286.35C187.341 286.252 187.55 286.159 187.762 286.071C187.974 285.984 188.187 285.901 188.403 285.824C188.619 285.747 188.836 285.675 189.055 285.609C189.275 285.542 189.495 285.481 189.718 285.425C189.94 285.37 190.163 285.32 190.388 285.275C190.613 285.23 190.838 285.191 191.065 285.157C191.292 285.124 191.519 285.096 191.747 285.073C191.975 285.051 192.203 285.034 192.432 285.023C192.661 285.011 192.89 285.006 193.119 285.006Z" fill="#F3F3F3"/>
<path fill-rule="evenodd" clip-rule="evenodd" d="M334.119 285.006H449.121C449.35 285.006 449.579 285.011 449.808 285.023C450.037 285.034 450.265 285.051 450.493 285.073C450.721 285.096 450.948 285.124 451.175 285.157C451.402 285.191 451.627 285.23 451.852 285.275C452.077 285.32 452.3 285.37 452.522 285.425C452.745 285.481 452.966 285.542 453.185 285.609C453.404 285.675 453.622 285.747 453.837 285.824C454.053 285.901 454.267 285.984 454.478 286.071C454.69 286.159 454.899 286.252 455.106 286.35C455.313 286.448 455.518 286.551 455.72 286.659C455.922 286.767 456.121 286.88 456.318 286.998C456.515 287.115 456.708 287.238 456.898 287.365C457.089 287.492 457.276 287.624 457.46 287.761C457.644 287.897 457.825 288.038 458.002 288.183C458.179 288.329 458.352 288.478 458.522 288.632C458.692 288.786 458.858 288.944 459.02 289.106C459.182 289.268 459.34 289.434 459.494 289.604C459.647 289.773 459.797 289.947 459.942 290.124C460.087 290.301 460.228 290.482 460.365 290.666C460.502 290.85 460.634 291.037 460.761 291.227C460.888 291.418 461.011 291.611 461.128 291.808C461.246 292.004 461.359 292.204 461.467 292.406C461.575 292.608 461.678 292.812 461.776 293.02C461.874 293.227 461.967 293.436 462.054 293.648C462.142 293.859 462.225 294.073 462.302 294.289C462.379 294.504 462.45 294.722 462.517 294.941C462.584 295.16 462.645 295.381 462.7 295.603C462.756 295.826 462.806 296.049 462.851 296.274C462.896 296.498 462.935 296.724 462.968 296.951C463.002 297.177 463.03 297.405 463.053 297.633C463.075 297.861 463.092 298.089 463.103 298.318C463.114 298.547 463.12 298.776 463.12 299.005V313.007C463.12 313.236 463.114 313.465 463.103 313.694C463.092 313.923 463.075 314.151 463.053 314.379C463.03 314.607 463.002 314.834 462.968 315.061C462.935 315.288 462.896 315.513 462.851 315.738C462.806 315.963 462.756 316.186 462.7 316.408C462.645 316.631 462.584 316.851 462.517 317.071C462.45 317.29 462.379 317.507 462.302 317.723C462.225 317.939 462.142 318.152 462.054 318.364C461.967 318.576 461.874 318.785 461.776 318.992C461.678 319.199 461.575 319.404 461.467 319.606C461.359 319.808 461.246 320.007 461.128 320.204C461.011 320.4 460.888 320.594 460.761 320.784C460.634 320.975 460.502 321.162 460.365 321.346C460.228 321.53 460.087 321.711 459.942 321.888C459.797 322.065 459.647 322.238 459.494 322.408C459.34 322.578 459.182 322.744 459.02 322.906C458.858 323.068 458.692 323.226 458.522 323.379C458.352 323.533 458.179 323.683 458.002 323.828C457.825 323.974 457.644 324.114 457.46 324.251C457.276 324.387 457.089 324.519 456.898 324.647C456.708 324.774 456.515 324.896 456.318 325.014C456.121 325.132 455.922 325.245 455.72 325.353C455.518 325.461 455.313 325.564 455.106 325.662C454.899 325.76 454.69 325.853 454.478 325.94C454.267 326.028 454.053 326.11 453.837 326.188C453.622 326.265 453.404 326.337 453.185 326.403C452.966 326.47 452.745 326.531 452.522 326.586C452.3 326.642 452.077 326.692 451.852 326.737C451.627 326.782 451.402 326.821 451.175 326.854C450.948 326.888 450.721 326.916 450.493 326.938C450.265 326.961 450.037 326.978 449.808 326.989C449.579 327 449.35 327.006 449.121 327.006H334.119C333.89 327.006 333.661 327 333.432 326.989C333.203 326.978 332.975 326.961 332.747 326.938C332.519 326.916 332.292 326.888 332.065 326.854C331.838 326.821 331.613 326.782 331.388 326.737C331.163 326.692 330.94 326.642 330.718 326.586C330.495 326.531 330.275 326.47 330.055 326.403C329.836 326.337 329.619 326.265 329.403 326.188C329.187 326.11 328.974 326.028 328.762 325.94C328.55 325.853 328.341 325.76 328.134 325.662C327.927 325.564 327.722 325.461 327.52 325.353C327.318 325.245 327.119 325.132 326.922 325.014C326.726 324.896 326.532 324.774 326.342 324.647C326.151 324.519 325.964 324.387 325.78 324.251C325.596 324.114 325.415 323.974 325.238 323.828C325.061 323.683 324.888 323.533 324.718 323.379C324.548 323.226 324.382 323.068 324.22 322.906C324.058 322.744 323.9 322.578 323.747 322.408C323.593 322.238 323.443 322.065 323.298 321.888C323.152 321.711 323.011 321.53 322.875 321.346C322.739 321.162 322.607 320.975 322.479 320.784C322.352 320.594 322.23 320.4 322.112 320.204C321.994 320.007 321.881 319.808 321.773 319.606C321.665 319.404 321.562 319.199 321.464 318.992C321.366 318.785 321.273 318.576 321.186 318.364C321.098 318.152 321.016 317.939 320.938 317.723C320.861 317.507 320.789 317.29 320.723 317.071C320.656 316.851 320.595 316.631 320.54 316.408C320.484 316.186 320.434 315.963 320.389 315.738C320.344 315.513 320.305 315.288 320.272 315.061C320.238 314.834 320.21 314.607 320.188 314.379C320.165 314.151 320.148 313.923 320.137 313.694C320.126 313.465 320.12 313.236 320.12 313.007V299.005C320.12 298.776 320.126 298.547 320.137 298.318C320.148 298.089 320.165 297.861 320.188 297.633C320.21 297.405 320.238 297.177 320.272 296.951C320.305 296.724 320.344 296.498 320.389 296.274C320.434 296.049 320.484 295.826 320.54 295.603C320.595 295.381 320.656 295.16 320.723 294.941C320.789 294.722 320.861 294.504 320.938 294.289C321.016 294.073 321.098 293.859 321.186 293.648C321.273 293.436 321.366 293.227 321.464 293.02C321.562 292.812 321.665 292.608 321.773 292.406C321.881 292.204 321.994 292.004 322.112 291.808C322.23 291.611 322.352 291.418 322.479 291.227C322.607 291.037 322.739 290.85 322.875 290.666C323.011 290.482 323.152 290.301 323.298 290.124C323.443 289.947 323.593 289.773 323.747 289.604C323.9 289.434 324.058 289.268 324.22 289.106C324.382 288.944 324.548 288.786 324.718 288.632C324.888 288.478 325.061 288.329 325.238 288.183C325.415 288.038 325.596 287.897 325.78 287.761C325.964 287.624 326.151 287.492 326.342 287.365C326.532 287.238 326.726 287.115 326.922 286.998C327.119 286.88 327.318 286.767 327.52 286.659C327.722 286.551 327.927 286.448 328.134 286.35C328.341 286.252 328.55 286.159 328.762 286.071C328.974 285.984 329.187 285.901 329.403 285.824C329.619 285.747 329.836 285.675 330.055 285.609C330.275 285.542 330.495 285.481 330.718 285.425C330.94 285.37 331.163 285.32 331.388 285.275C331.613 285.23 331.838 285.191 332.065 285.157C332.292 285.124 332.519 285.096 332.747 285.073C332.975 285.051 333.203 285.034 333.432 285.023C333.661 285.011 333.89 285.006 334.119 285.006Z" fill="#F3F3F3"/>
<path fill-rule="evenodd" clip-rule="evenodd" d="M205.619 301.006H245.621C245.736 301.006 245.85 301.011 245.964 301.023C246.078 301.034 246.191 301.051 246.304 301.073C246.416 301.095 246.527 301.123 246.637 301.157C246.746 301.19 246.854 301.228 246.96 301.272C247.066 301.316 247.169 301.365 247.271 301.419C247.372 301.473 247.47 301.532 247.565 301.596C247.66 301.659 247.752 301.727 247.841 301.8C247.929 301.873 248.014 301.95 248.095 302.031C248.176 302.112 248.253 302.197 248.326 302.285C248.399 302.374 248.467 302.466 248.53 302.561C248.594 302.656 248.653 302.754 248.707 302.855C248.761 302.957 248.81 303.06 248.854 303.166C248.898 303.272 248.936 303.379 248.969 303.489C249.003 303.599 249.031 303.71 249.053 303.822C249.075 303.935 249.092 304.048 249.103 304.162C249.115 304.276 249.12 304.39 249.12 304.505V307.507C249.12 307.621 249.115 307.736 249.103 307.85C249.092 307.964 249.075 308.077 249.053 308.189C249.031 308.302 249.003 308.413 248.969 308.523C248.936 308.632 248.898 308.74 248.854 308.846C248.81 308.952 248.761 309.055 248.707 309.156C248.653 309.257 248.594 309.356 248.53 309.451C248.467 309.546 248.399 309.638 248.326 309.727C248.253 309.815 248.176 309.9 248.095 309.981C248.014 310.062 247.929 310.139 247.841 310.212C247.752 310.284 247.66 310.353 247.565 310.416C247.47 310.48 247.372 310.539 247.271 310.593C247.169 310.647 247.066 310.696 246.96 310.74C246.854 310.783 246.746 310.822 246.637 310.855C246.527 310.888 246.416 310.916 246.304 310.939C246.191 310.961 246.078 310.978 245.964 310.989C245.85 311 245.736 311.006 245.621 311.006H205.619C205.505 311.006 205.39 311 205.276 310.989C205.162 310.978 205.049 310.961 204.936 310.939C204.824 310.916 204.713 310.888 204.603 310.855C204.494 310.822 204.386 310.783 204.28 310.74C204.174 310.696 204.071 310.647 203.97 310.593C203.869 310.539 203.77 310.48 203.675 310.416C203.58 310.353 203.488 310.284 203.399 310.212C203.311 310.139 203.226 310.062 203.145 309.981C203.064 309.9 202.987 309.815 202.914 309.727C202.842 309.638 202.773 309.546 202.71 309.451C202.646 309.356 202.587 309.257 202.533 309.156C202.479 309.055 202.43 308.952 202.386 308.846C202.343 308.74 202.304 308.632 202.271 308.523C202.238 308.413 202.21 308.302 202.187 308.189C202.165 308.077 202.148 307.964 202.137 307.85C202.126 307.736 202.12 307.621 202.12 307.507V304.505C202.12 304.39 202.126 304.276 202.137 304.162C202.148 304.048 202.165 303.935 202.187 303.822C202.21 303.71 202.238 303.599 202.271 303.489C202.304 303.379 202.343 303.272 202.386 303.166C202.43 303.06 202.479 302.957 202.533 302.855C202.587 302.754 202.646 302.656 202.71 302.561C202.773 302.466 202.842 302.374 202.914 302.285C202.987 302.197 203.064 302.112 203.145 302.031C203.226 301.95 203.311 301.873 203.399 301.8C203.488 301.727 203.58 301.659 203.675 301.596C203.77 301.532 203.869 301.473 203.97 301.419C204.071 301.365 204.174 301.316 204.28 301.272C204.386 301.228 204.494 301.19 204.603 301.157C204.713 301.123 204.824 301.095 204.936 301.073C205.049 301.051 205.162 301.034 205.276 301.023C205.39 301.011 205.505 301.006 205.619 301.006Z" fill="#8D75AD"/>
<path fill-rule="evenodd" clip-rule="evenodd" d="M202.619 365.006H390.621C390.736 365.006 390.85 365.011 390.964 365.023C391.078 365.034 391.191 365.051 391.304 365.073C391.416 365.095 391.527 365.123 391.637 365.157C391.746 365.19 391.854 365.228 391.96 365.272C392.066 365.316 392.169 365.365 392.27 365.419C392.371 365.473 392.47 365.532 392.565 365.596C392.66 365.659 392.752 365.727 392.841 365.8C392.93 365.873 393.014 365.95 393.095 366.031C393.176 366.112 393.253 366.197 393.326 366.285C393.399 366.374 393.467 366.466 393.53 366.561C393.594 366.656 393.653 366.754 393.707 366.855C393.761 366.957 393.81 367.06 393.854 367.166C393.897 367.272 393.936 367.379 393.969 367.489C394.002 367.599 394.03 367.71 394.053 367.822C394.075 367.935 394.092 368.048 394.103 368.162C394.114 368.276 394.12 368.39 394.12 368.505V371.507C394.12 371.621 394.114 371.736 394.103 371.85C394.092 371.964 394.075 372.077 394.053 372.189C394.03 372.302 394.002 372.413 393.969 372.523C393.936 372.632 393.897 372.74 393.854 372.846C393.81 372.952 393.761 373.055 393.707 373.156C393.653 373.257 393.594 373.356 393.53 373.451C393.467 373.546 393.399 373.638 393.326 373.727C393.253 373.815 393.176 373.9 393.095 373.981C393.014 374.062 392.93 374.139 392.841 374.212C392.752 374.284 392.66 374.353 392.565 374.416C392.47 374.48 392.371 374.539 392.27 374.593C392.169 374.647 392.066 374.696 391.96 374.74C391.854 374.783 391.746 374.822 391.637 374.855C391.527 374.888 391.416 374.916 391.304 374.939C391.191 374.961 391.078 374.978 390.964 374.989C390.85 375 390.736 375.006 390.621 375.006H202.619C202.505 375.006 202.39 375 202.276 374.989C202.162 374.978 202.049 374.961 201.936 374.939C201.824 374.916 201.713 374.888 201.603 374.855C201.494 374.822 201.386 374.783 201.28 374.74C201.174 374.696 201.071 374.647 200.97 374.593C200.869 374.539 200.77 374.48 200.675 374.416C200.58 374.353 200.488 374.284 200.399 374.212C200.311 374.139 200.226 374.062 200.145 373.981C200.064 373.9 199.987 373.815 199.914 373.727C199.842 373.638 199.773 373.546 199.71 373.451C199.646 373.356 199.587 373.257 199.533 373.156C199.479 373.055 199.43 372.952 199.386 372.846C199.343 372.74 199.304 372.632 199.271 372.523C199.238 372.413 199.21 372.302 199.187 372.189C199.165 372.077 199.148 371.964 199.137 371.85C199.126 371.736 199.12 371.621 199.12 371.507V368.505C199.12 368.39 199.126 368.276 199.137 368.162C199.148 368.048 199.165 367.935 199.187 367.822C199.21 367.71 199.238 367.599 199.271 367.489C199.304 367.379 199.343 367.272 199.386 367.166C199.43 367.06 199.479 366.957 199.533 366.855C199.587 366.754 199.646 366.656 199.71 366.561C199.773 366.466 199.842 366.374 199.914 366.285C199.987 366.197 200.064 366.112 200.145 366.031C200.226 365.95 200.311 365.873 200.399 365.8C200.488 365.727 200.58 365.659 200.675 365.596C200.77 365.532 200.869 365.473 200.97 365.419C201.071 365.365 201.174 365.316 201.28 365.272C201.386 365.228 201.494 365.19 201.603 365.157C201.713 365.123 201.824 365.095 201.936 365.073C202.049 365.051 202.162 365.034 202.276 365.023C202.39 365.011 202.505 365.006 202.619 365.006Z" fill="#973C56"/>
<path fill-rule="evenodd" clip-rule="evenodd" d="M348.619 301.006H415.621C415.736 301.006 415.85 301.011 415.964 301.023C416.078 301.034 416.191 301.051 416.304 301.073C416.416 301.095 416.527 301.123 416.637 301.157C416.746 301.19 416.854 301.228 416.96 301.272C417.066 301.316 417.169 301.365 417.271 301.419C417.372 301.473 417.47 301.532 417.565 301.596C417.66 301.659 417.752 301.727 417.841 301.8C417.929 301.873 418.014 301.95 418.095 302.031C418.176 302.112 418.253 302.197 418.326 302.285C418.399 302.374 418.467 302.466 418.53 302.561C418.594 302.656 418.653 302.754 418.707 302.855C418.761 302.957 418.81 303.06 418.854 303.166C418.898 303.272 418.936 303.379 418.969 303.489C419.003 303.599 419.031 303.71 419.053 303.822C419.075 303.935 419.092 304.048 419.103 304.162C419.115 304.276 419.12 304.39 419.12 304.505V307.507C419.12 307.621 419.115 307.736 419.103 307.85C419.092 307.964 419.075 308.077 419.053 308.189C419.031 308.302 419.003 308.413 418.969 308.523C418.936 308.632 418.898 308.74 418.854 308.846C418.81 308.952 418.761 309.055 418.707 309.156C418.653 309.257 418.594 309.356 418.53 309.451C418.467 309.546 418.399 309.638 418.326 309.727C418.253 309.815 418.176 309.9 418.095 309.981C418.014 310.062 417.929 310.139 417.841 310.212C417.752 310.284 417.66 310.353 417.565 310.416C417.47 310.48 417.372 310.539 417.271 310.593C417.169 310.647 417.066 310.696 416.96 310.74C416.854 310.783 416.746 310.822 416.637 310.855C416.527 310.888 416.416 310.916 416.304 310.939C416.191 310.961 416.078 310.978 415.964 310.989C415.85 311 415.736 311.006 415.621 311.006H348.619C348.505 311.006 348.39 311 348.276 310.989C348.162 310.978 348.049 310.961 347.936 310.939C347.824 310.916 347.713 310.888 347.603 310.855C347.494 310.822 347.386 310.783 347.28 310.74C347.174 310.696 347.071 310.647 346.97 310.593C346.869 310.539 346.77 310.48 346.675 310.416C346.58 310.353 346.488 310.284 346.399 310.212C346.311 310.139 346.226 310.062 346.145 309.981C346.064 309.9 345.987 309.815 345.914 309.727C345.842 309.638 345.773 309.546 345.71 309.451C345.646 309.356 345.587 309.257 345.533 309.156C345.479 309.055 345.43 308.952 345.386 308.846C345.343 308.74 345.304 308.632 345.271 308.523C345.238 308.413 345.21 308.302 345.187 308.189C345.165 308.077 345.148 307.964 345.137 307.85C345.126 307.736 345.12 307.621 345.12 307.507V304.505C345.12 304.39 345.126 304.276 345.137 304.162C345.148 304.048 345.165 303.935 345.187 303.822C345.21 303.71 345.238 303.599 345.271 303.489C345.304 303.379 345.343 303.272 345.386 303.166C345.43 303.06 345.479 302.957 345.533 302.855C345.587 302.754 345.646 302.656 345.71 302.561C345.773 302.466 345.842 302.374 345.914 302.285C345.987 302.197 346.064 302.112 346.145 302.031C346.226 301.95 346.311 301.873 346.399 301.8C346.488 301.727 346.58 301.659 346.675 301.596C346.77 301.532 346.869 301.473 346.97 301.419C347.071 301.365 347.174 301.316 347.28 301.272C347.386 301.228 347.494 301.19 347.603 301.157C347.713 301.123 347.824 301.095 347.936 301.073C348.049 301.051 348.162 301.034 348.276 301.023C348.39 301.011 348.505 301.006 348.619 301.006Z" fill="#F1CE8E"/>
<mask id="mask1_1_4" style="mask-type:luminance" maskUnits="userSpaceOnUse" x="184" y="411" width="280" height="52">
<path d="M206.619 411.006H440.621C440.989 411.006 441.357 411.015 441.725 411.033C442.093 411.051 442.46 411.078 442.826 411.114C443.193 411.15 443.558 411.195 443.922 411.249C444.287 411.303 444.649 411.366 445.01 411.438C445.371 411.51 445.731 411.591 446.088 411.68C446.445 411.77 446.8 411.868 447.152 411.975C447.505 412.082 447.854 412.197 448.201 412.321C448.548 412.445 448.891 412.578 449.231 412.718C449.571 412.859 449.908 413.009 450.241 413.166C450.574 413.323 450.902 413.489 451.227 413.663C451.552 413.836 451.872 414.018 452.188 414.207C452.504 414.396 452.815 414.593 453.121 414.798C453.427 415.002 453.728 415.214 454.024 415.433C454.319 415.653 454.609 415.879 454.894 416.113C455.179 416.346 455.457 416.587 455.73 416.834C456.003 417.081 456.27 417.335 456.53 417.596C456.791 417.856 457.045 418.123 457.292 418.395C457.539 418.668 457.78 418.947 458.013 419.232C458.246 419.516 458.473 419.806 458.692 420.102C458.911 420.398 459.123 420.699 459.328 421.005C459.533 421.311 459.73 421.622 459.919 421.938C460.108 422.254 460.29 422.574 460.463 422.899C460.637 423.224 460.803 423.552 460.96 423.885C461.117 424.218 461.266 424.555 461.407 424.895C461.548 425.235 461.681 425.578 461.805 425.925C461.929 426.272 462.044 426.621 462.151 426.974C462.258 427.326 462.356 427.681 462.446 428.038C462.535 428.395 462.616 428.754 462.688 429.116C462.759 429.477 462.822 429.839 462.876 430.204C462.93 430.568 462.975 430.933 463.012 431.3C463.048 431.666 463.075 432.033 463.093 432.401C463.111 432.769 463.12 433.137 463.12 433.505V439.507C463.12 439.875 463.111 440.243 463.093 440.611C463.075 440.979 463.048 441.346 463.012 441.712C462.975 442.079 462.93 442.444 462.876 442.808C462.822 443.172 462.759 443.535 462.688 443.896C462.616 444.257 462.535 444.616 462.446 444.974C462.356 445.331 462.258 445.686 462.151 446.038C462.044 446.39 461.929 446.74 461.805 447.087C461.681 447.433 461.548 447.777 461.407 448.117C461.266 448.457 461.117 448.794 460.96 449.126C460.803 449.459 460.637 449.788 460.463 450.113C460.29 450.438 460.108 450.758 459.919 451.074C459.73 451.389 459.533 451.7 459.328 452.007C459.123 452.313 458.911 452.614 458.692 452.909C458.473 453.205 458.246 453.495 458.013 453.78C457.78 454.065 457.539 454.343 457.292 454.616C457.045 454.889 456.791 455.156 456.53 455.416C456.27 455.676 456.003 455.93 455.73 456.178C455.457 456.425 455.179 456.665 454.894 456.899C454.609 457.132 454.319 457.359 454.024 457.578C453.728 457.798 453.427 458.01 453.121 458.214C452.814 458.419 452.503 458.616 452.188 458.805C451.872 458.994 451.552 459.176 451.227 459.349C450.902 459.523 450.574 459.688 450.241 459.846C449.908 460.003 449.571 460.152 449.231 460.293C448.891 460.434 448.548 460.567 448.201 460.691C447.854 460.815 447.505 460.93 447.152 461.037C446.8 461.144 446.445 461.242 446.088 461.332C445.731 461.421 445.371 461.502 445.01 461.574C444.649 461.645 444.287 461.708 443.922 461.762C443.558 461.816 443.193 461.861 442.826 461.898C442.46 461.934 442.093 461.961 441.725 461.979C441.357 461.997 440.989 462.006 440.621 462.006H206.619C206.251 462.006 205.883 461.997 205.515 461.979C205.147 461.961 204.78 461.934 204.414 461.898C204.047 461.861 203.682 461.816 203.318 461.762C202.954 461.708 202.591 461.645 202.23 461.574C201.869 461.502 201.51 461.421 201.152 461.332C200.795 461.242 200.44 461.144 200.088 461.037C199.736 460.93 199.386 460.815 199.039 460.691C198.693 460.567 198.349 460.434 198.009 460.293C197.669 460.152 197.332 460.003 197 459.846C196.667 459.688 196.338 459.523 196.013 459.349C195.688 459.176 195.368 458.994 195.052 458.805C194.737 458.616 194.426 458.419 194.119 458.214C193.813 458.01 193.512 457.798 193.216 457.578C192.921 457.359 192.631 457.132 192.346 456.899C192.061 456.665 191.783 456.425 191.51 456.177C191.237 455.93 190.97 455.676 190.71 455.416C190.45 455.156 190.196 454.889 189.948 454.616C189.701 454.343 189.461 454.065 189.227 453.78C188.994 453.495 188.767 453.205 188.548 452.909C188.328 452.614 188.116 452.313 187.912 452.007C187.707 451.7 187.51 451.389 187.321 451.074C187.132 450.758 186.95 450.438 186.777 450.113C186.603 449.788 186.438 449.459 186.28 449.126C186.123 448.794 185.974 448.457 185.833 448.117C185.692 447.777 185.559 447.433 185.435 447.087C185.311 446.74 185.196 446.39 185.089 446.038C184.982 445.686 184.884 445.331 184.794 444.974C184.705 444.616 184.624 444.257 184.552 443.896C184.481 443.535 184.418 443.172 184.364 442.808C184.31 442.444 184.265 442.079 184.228 441.712C184.192 441.346 184.165 440.979 184.147 440.611C184.129 440.243 184.12 439.875 184.12 439.507V433.505C184.12 433.137 184.129 432.769 184.147 432.401C184.165 432.033 184.192 431.666 184.228 431.3C184.265 430.933 184.31 430.568 184.364 430.204C184.418 429.839 184.481 429.477 184.552 429.116C184.624 428.754 184.705 428.395 184.794 428.038C184.884 427.681 184.982 427.326 185.089 426.974C185.196 426.621 185.311 426.272 185.435 425.925C185.559 425.578 185.692 425.235 185.833 424.895C185.974 424.555 186.123 424.218 186.28 423.885C186.438 423.552 186.603 423.224 186.777 422.899C186.95 422.574 187.132 422.254 187.321 421.938C187.51 421.622 187.707 421.311 187.912 421.005C188.116 420.699 188.328 420.398 188.548 420.102C188.767 419.806 188.994 419.516 189.227 419.232C189.461 418.947 189.701 418.668 189.948 418.395C190.196 418.123 190.45 417.856 190.71 417.596C190.97 417.335 191.237 417.081 191.51 416.834C191.783 416.587 192.061 416.346 192.346 416.113C192.631 415.879 192.921 415.653 193.216 415.433C193.512 415.214 193.813 415.002 194.119 414.798C194.426 414.593 194.737 414.396 195.052 414.207C195.368 414.018 195.688 413.836 196.013 413.663C196.338 413.489 196.667 413.323 197 413.166C197.332 413.009 197.669 412.859 198.009 412.718C198.349 412.578 198.693 412.445 199.039 412.321C199.386 412.197 199.736 412.082 200.088 411.975C200.44 411.868 200.795 411.77 201.152 411.68C201.51 411.591 201.869 411.51 202.23 411.438C202.591 411.366 202.954 411.303 203.318 411.249C203.682 411.195 204.047 411.15 204.414 411.114C204.78 411.078 205.147 411.051 205.515 411.033C205.883 411.015 206.251 411.006 206.619 411.006Z" fill="white"/>
</mask>
<g mask="url(#mask1_1_4)">
<path d="M206.619 411.006H440.621C440.989 411.006 441.357 411.015 441.725 411.033C442.093 411.051 442.46 411.078 442.826 411.114C443.193 411.15 443.558 411.195 443.922 411.249C444.287 411.303 444.649 411.366 445.01 411.438C445.371 411.51 445.731 411.591 446.088 411.68C446.445 411.77 446.8 411.868 447.152 411.975C447.505 412.082 447.854 412.197 448.201 412.321C448.548 412.445 448.891 412.578 449.231 412.718C449.571 412.859 449.908 413.009 450.241 413.166C450.574 413.323 450.902 413.489 451.227 413.663C451.552 413.836 451.872 414.018 452.188 414.207C452.504 414.396 452.815 414.593 453.121 414.798C453.427 415.002 453.728 415.214 454.024 415.433C454.319 415.653 454.609 415.879 454.894 416.113C455.179 416.346 455.457 416.587 455.73 416.834C456.003 417.081 456.27 417.335 456.53 417.596C456.791 417.856 457.045 418.123 457.292 418.395C457.539 418.668 457.78 418.947 458.013 419.232C458.246 419.516 458.473 419.806 458.692 420.102C458.911 420.398 459.123 420.699 459.328 421.005C459.533 421.311 459.73 421.622 459.919 421.938C460.108 422.254 460.29 422.574 460.463 422.899C460.637 423.224 460.803 423.552 460.96 423.885C461.117 424.218 461.266 424.555 461.407 424.895C461.548 425.235 461.681 425.578 461.805 425.925C461.929 426.272 462.044 426.621 462.151 426.974C462.258 427.326 462.356 427.681 462.446 428.038C462.535 428.395 462.616 428.754 462.688 429.116C462.759 429.477 462.822 429.839 462.876 430.204C462.93 430.568 462.975 430.933 463.012 431.3C463.048 431.666 463.075 432.033 463.093 432.401C463.111 432.769 463.12 433.137 463.12 433.505V439.507C463.12 439.875 463.111 440.243 463.093 440.611C463.075 440.979 463.048 441.346 463.012 441.712C462.975 442.079 462.93 442.444 462.876 442.808C462.822 443.172 462.759 443.535 462.688 443.896C462.616 444.257 462.535 444.616 462.446 444.974C462.356 445.331 462.258 445.686 462.151 446.038C462.044 446.39 461.929 446.74 461.805 447.087C461.681 447.433 461.548 447.777 461.407 448.117C461.266 448.457 461.117 448.794 460.96 449.126C460.803 449.459 460.637 449.788 460.463 450.113C460.29 450.438 460.108 450.758 459.919 451.074C459.73 451.389 459.533 451.7 459.328 452.007C459.123 452.313 458.911 452.614 458.692 452.909C458.473 453.205 458.246 453.495 458.013 453.78C457.78 454.065 457.539 454.343 457.292 454.616C457.045 454.889 456.791 455.156 456.53 455.416C456.27 455.676 456.003 455.93 455.73 456.178C455.457 456.425 455.179 456.665 454.894 456.899C454.609 457.132 454.319 457.359 454.024 457.578C453.728 457.798 453.427 458.01 453.121 458.214C452.814 458.419 452.503 458.616 452.188 458.805C451.872 458.994 451.552 459.176 451.227 459.349C450.902 459.523 450.574 459.688 450.241 459.846C449.908 460.003 449.571 460.152 449.231 460.293C448.891 460.434 448.548 460.567 448.201 460.691C447.854 460.815 447.505 460.93 447.152 461.037C446.8 461.144 446.445 461.242 446.088 461.332C445.731 461.421 445.371 461.502 445.01 461.574C444.649 461.645 444.287 461.708 443.922 461.762C443.558 461.816 443.193 461.861 442.826 461.898C442.46 461.934 442.093 461.961 441.725 461.979C441.357 461.997 440.989 462.006 440.621 462.006H206.619C206.251 462.006 205.883 461.997 205.515 461.979C205.147 461.961 204.78 461.934 204.414 461.898C204.047 461.861 203.682 461.816 203.318 461.762C202.954 461.708 202.591 461.645 202.23 461.574C201.869 461.502 201.51 461.421 201.152 461.332C200.795 461.242 200.44 461.144 200.088 461.037C199.736 460.93 199.386 460.815 199.039 460.691C198.693 460.567 198.349 460.434 198.009 460.293C197.669 460.152 197.332 460.003 197 459.846C196.667 459.688 196.338 459.523 196.013 459.349C195.688 459.176 195.368 458.994 195.052 458.805C194.737 458.616 194.426 458.419 194.119 458.214C193.813 458.01 193.512 457.798 193.216 457.578C192.921 457.359 192.631 457.132 192.346 456.899C192.061 456.665 191.783 456.425 191.51 456.177C191.237 455.93 190.97 455.676 190.71 455.416C190.45 455.156 190.196 454.889 189.948 454.616C189.701 454.343 189.461 454.065 189.227 453.78C188.994 453.495 188.767 453.205 188.548 452.909C188.328 452.614 188.116 452.313 187.912 452.007C187.707 451.7 187.51 451.389 187.321 451.074C187.132 450.758 186.95 450.438 186.777 450.113C186.603 449.788 186.438 449.459 186.28 449.126C186.123 448.794 185.974 448.457 185.833 448.117C185.692 447.777 185.559 447.433 185.435 447.087C185.311 446.74 185.196 446.39 185.089 446.038C184.982 445.686 184.884 445.331 184.794 444.974C184.705 444.616 184.624 444.257 184.552 443.896C184.481 443.535 184.418 443.172 184.364 442.808C184.31 442.444 184.265 442.079 184.228 441.712C184.192 441.346 184.165 440.979 184.147 440.611C184.129 440.243 184.12 439.875 184.12 439.507V433.505C184.12 433.137 184.129 432.769 184.147 432.401C184.165 432.033 184.192 431.666 184.228 431.3C184.265 430.933 184.31 430.568 184.364 430.204C184.418 429.839 184.481 429.477 184.552 429.116C184.624 428.754 184.705 428.395 184.794 428.038C184.884 427.681 184.982 427.326 185.089 426.974C185.196 426.621 185.311 426.272 185.435 425.925C185.559 425.578 185.692 425.235 185.833 424.895C185.974 424.555 186.123 424.218 186.28 423.885C186.438 423.552 186.603 423.224 186.777 422.899C186.95 422.574 187.132 422.254 187.321 421.938C187.51 421.622 187.707 421.311 187.912 421.005C188.116 420.699 188.328 420.398 188.548 420.102C188.767 419.806 188.994 419.516 189.227 419.232C189.461 418.947 189.701 418.668 189.948 418.395C190.196 418.123 190.45 417.856 190.71 417.596C190.97 417.335 191.237 417.081 191.51 416.834C191.783 416.587 192.061 416.346 192.346 416.113C192.631 415.879 192.921 415.653 193.216 415.433C193.512 415.214 193.813 415.002 194.119 414.798C194.426 414.593 194.737 414.396 195.052 414.207C195.368 414.018 195.688 413.836 196.013 413.663C196.338 413.489 196.667 413.323 197 413.166C197.332 413.009 197.669 412.859 198.009 412.718C198.349 412.578 198.693 412.445 199.039 412.321C199.386 412.197 199.736 412.082 200.088 411.975C200.44 411.868 200.795 411.77 201.152 411.68C201.51 411.591 201.869 411.51 202.23 411.438C202.591 411.366 202.954 411.303 203.318 411.249C203.682 411.195 204.047 411.15 204.414 411.114C204.78 411.078 205.147 411.051 205.515 411.033C205.883 411.015 206.251 411.006 206.619 411.006Z" stroke="#973C56" stroke-width="2"/>
</g>
<path d="M187.206 200H184.404L188.673 187.636H192.041L196.303 200H193.502L190.405 190.462H190.309L187.206 200ZM187.031 195.14H193.647V197.181H187.031V195.14ZM200.405 187.636V200H197.791V187.636H200.405ZM206.491 200V187.636H209.105V197.845H214.405V200H206.491ZM220.314 200.181C219.36 200.181 218.539 199.988 217.851 199.602C217.166 199.211 216.639 198.66 216.269 197.947C215.899 197.231 215.714 196.384 215.714 195.406C215.714 194.452 215.899 193.615 216.269 192.895C216.639 192.174 217.16 191.613 217.832 191.21C218.509 190.808 219.301 190.607 220.211 190.607C220.823 190.607 221.392 190.705 221.919 190.902C222.451 191.096 222.914 191.387 223.308 191.778C223.706 192.168 224.016 192.659 224.238 193.251C224.459 193.838 224.57 194.527 224.57 195.315V196.022H216.74V194.428H222.149C222.149 194.058 222.068 193.73 221.907 193.444C221.746 193.158 221.523 192.935 221.237 192.774C220.956 192.609 220.628 192.526 220.253 192.526C219.863 192.526 219.517 192.617 219.215 192.798C218.917 192.975 218.684 193.214 218.515 193.516C218.346 193.814 218.259 194.146 218.255 194.512V196.028C218.255 196.487 218.34 196.883 218.509 197.217C218.682 197.551 218.925 197.809 219.239 197.99C219.553 198.171 219.925 198.261 220.356 198.261C220.642 198.261 220.903 198.221 221.141 198.141C221.378 198.06 221.581 197.939 221.75 197.778C221.919 197.617 222.048 197.42 222.137 197.187L224.515 197.344C224.395 197.915 224.147 198.414 223.773 198.841C223.403 199.263 222.924 199.594 222.336 199.831C221.752 200.064 221.078 200.181 220.314 200.181ZM233.963 193.371L231.609 193.516C231.569 193.315 231.482 193.134 231.349 192.973C231.216 192.808 231.041 192.677 230.824 192.581C230.611 192.48 230.355 192.43 230.057 192.43C229.659 192.43 229.323 192.514 229.049 192.683C228.775 192.848 228.639 193.07 228.639 193.347C228.639 193.569 228.727 193.756 228.904 193.909C229.081 194.062 229.385 194.184 229.816 194.277L231.494 194.615C232.396 194.8 233.068 195.098 233.51 195.509C233.953 195.919 234.174 196.458 234.174 197.126C234.174 197.734 233.995 198.267 233.637 198.726C233.283 199.185 232.796 199.543 232.176 199.801C231.56 200.054 230.85 200.181 230.045 200.181C228.818 200.181 227.84 199.926 227.111 199.414C226.387 198.899 225.962 198.199 225.837 197.314L228.367 197.181C228.443 197.555 228.629 197.841 228.922 198.038C229.216 198.231 229.592 198.328 230.051 198.328C230.502 198.328 230.864 198.241 231.138 198.068C231.416 197.891 231.556 197.664 231.56 197.386C231.556 197.153 231.458 196.961 231.265 196.812C231.071 196.66 230.774 196.543 230.371 196.462L228.765 196.142C227.86 195.961 227.186 195.647 226.743 195.201C226.304 194.754 226.085 194.184 226.085 193.492C226.085 192.897 226.246 192.383 226.568 191.953C226.894 191.522 227.351 191.19 227.938 190.957C228.53 190.723 229.222 190.607 230.015 190.607C231.186 190.607 232.108 190.854 232.78 191.349C233.456 191.844 233.85 192.518 233.963 193.371ZM243.509 193.371L241.155 193.516C241.114 193.315 241.028 193.134 240.895 192.973C240.762 192.808 240.587 192.677 240.37 192.581C240.157 192.48 239.901 192.43 239.603 192.43C239.205 192.43 238.869 192.514 238.595 192.683C238.321 192.848 238.184 193.07 238.184 193.347C238.184 193.569 238.273 193.756 238.45 193.909C238.627 194.062 238.931 194.184 239.362 194.277L241.04 194.615C241.941 194.8 242.614 195.098 243.056 195.509C243.499 195.919 243.72 196.458 243.72 197.126C243.72 197.734 243.541 198.267 243.183 198.726C242.829 199.185 242.342 199.543 241.722 199.801C241.106 200.054 240.396 200.181 239.591 200.181C238.364 200.181 237.386 199.926 236.657 199.414C235.933 198.899 235.508 198.199 235.383 197.314L237.913 197.181C237.989 197.555 238.174 197.841 238.468 198.038C238.762 198.231 239.138 198.328 239.597 198.328C240.048 198.328 240.41 198.241 240.684 198.068C240.961 197.891 241.102 197.664 241.106 197.386C241.102 197.153 241.004 196.961 240.811 196.812C240.617 196.66 240.32 196.543 239.917 196.462L238.311 196.142C237.406 195.961 236.732 195.647 236.289 195.201C235.85 194.754 235.631 194.184 235.631 193.492C235.631 192.897 235.792 192.383 236.114 191.953C236.44 191.522 236.897 191.19 237.484 190.957C238.076 190.723 238.768 190.607 239.561 190.607C240.732 190.607 241.654 190.854 242.326 191.349C243.002 191.844 243.396 192.518 243.509 193.371ZM249.529 200.181C248.592 200.181 247.781 199.982 247.097 199.583C246.416 199.181 245.891 198.622 245.521 197.905C245.151 197.185 244.965 196.35 244.965 195.4C244.965 194.442 245.151 193.605 245.521 192.888C245.891 192.168 246.416 191.609 247.097 191.21C247.781 190.808 248.592 190.607 249.529 190.607C250.467 190.607 251.276 190.808 251.956 191.21C252.64 191.609 253.168 192.168 253.538 192.888C253.908 193.605 254.093 194.442 254.093 195.4C254.093 196.35 253.908 197.185 253.538 197.905C253.168 198.622 252.64 199.181 251.956 199.583C251.276 199.982 250.467 200.181 249.529 200.181ZM249.541 198.189C249.968 198.189 250.324 198.068 250.61 197.827C250.896 197.581 251.111 197.247 251.256 196.825C251.405 196.402 251.479 195.921 251.479 195.382C251.479 194.842 251.405 194.362 251.256 193.939C251.111 193.516 250.896 193.182 250.61 192.937C250.324 192.691 249.968 192.569 249.541 192.569C249.111 192.569 248.749 192.691 248.455 192.937C248.165 193.182 247.946 193.516 247.797 193.939C247.652 194.362 247.579 194.842 247.579 195.382C247.579 195.921 247.652 196.402 247.797 196.825C247.946 197.247 248.165 197.581 248.455 197.827C248.749 198.068 249.111 198.189 249.541 198.189ZM258.337 194.639V200H255.766V190.727H258.217V192.363H258.325C258.53 191.824 258.875 191.397 259.358 191.083C259.84 190.766 260.426 190.607 261.114 190.607C261.758 190.607 262.32 190.747 262.799 191.029C263.277 191.311 263.65 191.713 263.915 192.237C264.181 192.756 264.314 193.375 264.314 194.096V200H261.742V194.555C261.746 193.987 261.601 193.545 261.307 193.227C261.014 192.905 260.609 192.744 260.094 192.744C259.748 192.744 259.442 192.818 259.176 192.967C258.915 193.116 258.71 193.333 258.561 193.619C258.416 193.901 258.341 194.241 258.337 194.639Z" fill="black"/>
<path d="M304.075 443V430.636H309.025C309.934 430.636 310.693 430.771 311.301 431.041C311.908 431.31 312.365 431.685 312.671 432.164C312.977 432.639 313.13 433.186 313.13 433.806C313.13 434.289 313.033 434.713 312.84 435.08C312.647 435.442 312.381 435.74 312.043 435.973C311.709 436.202 311.327 436.365 310.896 436.462V436.583C311.367 436.603 311.808 436.736 312.218 436.981C312.633 437.227 312.969 437.571 313.227 438.013C313.484 438.452 313.613 438.975 313.613 439.583C313.613 440.239 313.45 440.825 313.124 441.34C312.802 441.851 312.325 442.255 311.693 442.553C311.061 442.851 310.283 443 309.357 443H304.075ZM306.689 440.863H308.82C309.548 440.863 310.079 440.724 310.413 440.446C310.747 440.165 310.914 439.79 310.914 439.324C310.914 438.981 310.832 438.68 310.667 438.418C310.502 438.156 310.266 437.951 309.961 437.802C309.659 437.653 309.299 437.579 308.88 437.579H306.689V440.863ZM306.689 435.81H308.626C308.985 435.81 309.303 435.748 309.58 435.623C309.862 435.494 310.083 435.313 310.244 435.08C310.409 434.846 310.492 434.566 310.492 434.24C310.492 433.794 310.333 433.433 310.015 433.16C309.701 432.886 309.254 432.749 308.675 432.749H306.689V435.81ZM319.455 443.181C318.517 443.181 317.706 442.982 317.022 442.583C316.342 442.181 315.817 441.622 315.447 440.905C315.076 440.185 314.891 439.35 314.891 438.4C314.891 437.442 315.076 436.605 315.447 435.888C315.817 435.168 316.342 434.609 317.022 434.21C317.706 433.808 318.517 433.607 319.455 433.607C320.393 433.607 321.202 433.808 321.882 434.21C322.566 434.609 323.093 435.168 323.464 435.888C323.834 436.605 324.019 437.442 324.019 438.4C324.019 439.35 323.834 440.185 323.464 440.905C323.093 441.622 322.566 442.181 321.882 442.583C321.202 442.982 320.393 443.181 319.455 443.181ZM319.467 441.189C319.894 441.189 320.25 441.068 320.536 440.827C320.822 440.581 321.037 440.247 321.182 439.825C321.331 439.402 321.405 438.921 321.405 438.382C321.405 437.842 321.331 437.362 321.182 436.939C321.037 436.516 320.822 436.182 320.536 435.937C320.25 435.691 319.894 435.569 319.467 435.569C319.037 435.569 318.674 435.691 318.381 435.937C318.091 436.182 317.871 436.516 317.723 436.939C317.578 437.362 317.505 437.842 317.505 438.382C317.505 438.921 317.578 439.402 317.723 439.825C317.871 440.247 318.091 440.581 318.381 440.827C318.674 441.068 319.037 441.189 319.467 441.189ZM329.881 443.181C328.943 443.181 328.132 442.982 327.448 442.583C326.768 442.181 326.243 441.622 325.872 440.905C325.502 440.185 325.317 439.35 325.317 438.4C325.317 437.442 325.502 436.605 325.872 435.888C326.243 435.168 326.768 434.609 327.448 434.21C328.132 433.808 328.943 433.607 329.881 433.607C330.819 433.607 331.628 433.808 332.308 434.21C332.992 434.609 333.519 435.168 333.889 435.888C334.26 436.605 334.445 437.442 334.445 438.4C334.445 439.35 334.26 440.185 333.889 440.905C333.519 441.622 332.992 442.181 332.308 442.583C331.628 442.982 330.819 443.181 329.881 443.181ZM329.893 441.189C330.32 441.189 330.676 441.068 330.962 440.827C331.247 440.581 331.463 440.247 331.608 439.825C331.756 439.402 331.831 438.921 331.831 438.382C331.831 437.842 331.756 437.362 331.608 436.939C331.463 436.516 331.247 436.182 330.962 435.937C330.676 435.691 330.32 435.569 329.893 435.569C329.462 435.569 329.1 435.691 328.806 435.937C328.517 436.182 328.297 436.516 328.148 436.939C328.003 437.362 327.931 437.842 327.931 438.382C327.931 438.921 328.003 439.402 328.148 439.825C328.297 440.247 328.517 440.581 328.806 440.827C329.1 441.068 329.462 441.189 329.893 441.189ZM338.447 440.332L338.453 437.247H338.828L341.798 433.727H344.75L340.759 438.388H340.15L338.447 440.332ZM336.117 443V430.636H338.689V443H336.117ZM341.913 443L339.184 438.961L340.898 437.144L344.925 443H341.913Z" fill="#973C56"/>
<defs>
<filter id="filter0_d_1_4" x="95.1201" y="125.006" width="453" height="446" filterUnits="userSpaceOnUse" color-interpolation-filters="sRGB">
<feFlood flood-opacity="0" result="BackgroundImageFix"/>
<feColorMatrix in="SourceAlpha" type="matrix" values="0 0 0 0 0 0 0 0 0 0 0 0 0 0 0 0 0 0 127 0" result="hardAlpha"/>
<feOffset dy="25"/>
<feGaussianBlur stdDeviation="25"/>
<feColorMatrix type="matrix" values="0 0 0 0 0.133333 0 0 0 0 0.180392 0 0 0 0 0.329412 0 0 0 0.0705882 0"/>
<feBlend mode="normal" in2="BackgroundImageFix" result="effect1_dropShadow_1_4"/>
<feBlend mode="normal" in="SourceGraphic" in2="effect1_dropShadow_1_4" result="shape"/>
</filter>
</defs>
</svg>
